<svg xmlns="http://www.w3.org/2000/svg" viewBox="0 0 702.81 621.13"><defs><style>.a{opacity:0.2;}.b{fill:#e3af93;}.c{fill:#d09071;}.d{fill:#c07756;}.e{fill:#7a1e18;}.f{fill:#e9b99a;}.g{fill:#f2d5c1;}.h{fill:#fffcff;}.i{fill:#d99f7a;}.j{fill:#ecc3ac;}.k{fill:#edc3ac;}.l{fill:#ecc0a8;}.m{fill:#f0c9b3;}</style></defs><path class="a" d="M393.29,320c-9.18,6.37-16.05,9.12-26.78,13.79,0,0-20.37,8.87-54.27,25.72-21.88,10.87-38.68,20.45-44.46,23.78-14.16,8.15-15.19,9.33-39.16,23.42-18.06,10.62-18.37,10.48-32.17,18.74-5.73,3.43-5.76,3.5-35.27,21.65-14.54,8.95-20.79,12.78-30,18.12-16.7,9.73-22.46,12.46-24.75,13.53C95,484.12,95,482.76,79.86,489.2a329.89,329.89,0,0,0-32.79,16.35,131.66,131.66,0,0,0-13.88,8.93,127,127,0,0,0-11,9.19c-2.06.76-7.12,2.77-10.69,5.92a7.71,7.71,0,0,0-2.39,3.27A7.54,7.54,0,0,0,9,537.28a29.71,29.71,0,0,0-4.5,8C1,554.5,3.23,562.88,4.29,566.63c2.87,10.15,9.05,16.3,12.46,19.62A45.85,45.85,0,0,0,39.2,598.89a44,44,0,0,0,16.8.35,35.38,35.38,0,0,0,2.21,11.85,37,37,0,0,0,14,17.5,38.07,38.07,0,0,0,22.63,6.63,37.05,37.05,0,0,0,12.11-2.57c.08,2.75.71,14.24,9.63,22,7.68,6.69,17,6.71,24,6.72a50.83,50.83,0,0,0,19.53-4.07,51.76,51.76,0,0,0,12.9-7.86,32.77,32.77,0,0,0,8.31,16.61c10.84,11.26,26.71,9.79,32.09,9.29,2.92-.28,22-2.35,33-18.21a39.58,39.58,0,0,0,5.3-11,17.35,17.35,0,0,0,4.69-1.68,17.16,17.16,0,0,0,4.06-3A29.43,29.43,0,0,0,279,674.2c7.13,2.91,13.24,2.37,19,1.85a53,53,0,0,0,18.65-5.21c4.91-2.42,8.45-4.17,11.75-8,1.86-2.13,3.36-4.59,7-8A51.17,51.17,0,0,1,340,651a61,61,0,0,0,14.94,3.89c3.15.4,14.69,1.6,36.51-5.92,10.59-3.66,17.58-7.29,31.46-14.5,11.31-5.87,13.36-7.49,28.73-16,17.44-9.66,26.17-14.49,36.77-19.36,12.8-5.87,22.29-9.1,41.28-15.55,10.42-3.55,21.68-7,44.19-13.88,2.85-.87,18-5.51,37.13-11.4,14-4.32,17.07-5.35,20.82-6.65,22.39-7.77,31.22-12.89,33.89-14.48,10.11-6,15.38-11.08,16.7-12.37a65.27,65.27,0,0,0,11.76-14.94,67.15,67.15,0,0,0,7.34-20.59,96.23,96.23,0,0,0,1.76-25.11c-.62-13.68-3.14-22.9-5.74-33.76-2.37-9.9-4.68-22-9.28-46.14" transform="translate(-2.59 -55.34)"/><path class="b" d="M674.3,461c-13.42,27.49-37.62,41.89-62.64,56.78-49.8,29.64-67.37,13.53-117.27,42.46-44.26,25.67-40.25,44-77,54-32.08,8.72-45.34-2.52-74.61,13-14.54,7.69-24.37,17.4-44.27,19.35-7.77.76-23.44,2.3-30.18-7.57h0c-6.95-10.19.64-25.18,1.33-26.51-8.72,8.54-33.68,31.36-61.2,34.2-8.56.88-13.83-.53-17.81-2.78-13.16-7.45-14.64-25.4-14.85-28.46l-43.5,15-44-34.44-76.4-48.69L7.68,532.18a76,76,0,0,1,6.86-12.28C25.35,504.17,39.72,496,48.62,492c13-5.11,32.66-13.25,56-24.59,28.93-14.06,47.55-25.29,77.17-42.93C271.47,371,316.6,344.22,331,339.38c20.07-6.75,38.75-11,61.66-27.24,10.42-7.39,31.78-22.89,45.77-51.07,10.35-20.82,11.68-38.5,13.81-66.95,1.72-23,.49-40.12-1.7-68.85-2-26.63-4.88-49-7.35-65.67l1.17-2.29c2.44.43,6.16,1.07,10.68,1.79,34.2,5.45,59.21,6.51,99,8.07,16.75.65,50.09,2,75.29,1.11,2.26-.08,14.6-.52,31.48-1,6.28-.17,11.73-.29,16-.38,4,10.76-2,27-4.82,36.07-.06.21-2.15,31.56-6.34,94.26-2.09,31.33-4.43,66.31-2.72,104.23C667.35,398.8,694.07,420.51,674.3,461Z" transform="translate(-2.59 -55.34)"/><path class="c" d="M62.28,577.93a22.88,22.88,0,0,0,8.77,6.38,24.21,24.21,0,0,0,9.74,1.53c8.11,0,17.16-.09,25.78-5.06,2.71-1.56,4.71-3.23,12.81-12.66C136.77,547.89,135.79,546,143,540.29a75,75,0,0,1,24.84-12.66c5.92-1.67,15.45-3.46,24.51-7.28a57.77,57.77,0,0,0,8.23-4c3.25-1.94,4.75-3.34,8.22-5.06a38.39,38.39,0,0,1,6-2.37,34,34,0,0,1-1.27,3.63,37.88,37.88,0,0,1-3,5.69c-2.36,3.51-6.38,5.82-11.36,8.71-15,8.69-14.34,8.42-15.82,9.1-7.24,3.34-9,3-14.09,6.2a49.52,49.52,0,0,0-9.32,7.48c-11.86,11.78-25,28.75-37.65,42.39-14.44,15.54-19.58,17.38-21.67,18-8.8,2.74-24.27,3.33-33.22-7.59C59.23,592.71,61.84,579.92,62.28,577.93Z" transform="translate(-2.59 -55.34)"/><path class="c" d="M114,609.09a15.59,15.59,0,0,0-2.53,6.49c-.9,6.54,2.85,12.71,7.12,16,4,3.06,8.94,3.29,18.67,3.64,8.42.31,12.64.46,16.76-.63,8.35-2.2,13.72-8,23.57-21.51,15.15-20.76,13.16-21.69,21.52-31.95a127.59,127.59,0,0,1,34.16-29.43c3.86-2.18,13.12-7,24-11.7l2.12-.91a17.72,17.72,0,0,0,4.36-2.57c1.1-.89,2.11-1.82,1.9-2.53-.31-1-3-1.08-4.59-1.11a21.31,21.31,0,0,0-5.06.48c-15.93,4-22.3,6.8-22.3,6.8a109.17,109.17,0,0,0-21,11.23c-10.79,7.5-17.4,15.34-22.15,21-6.19,7.44-11.36,15.21-18.19,25.46-6.58,9.89-8.36,13.3-13.6,16.45-7.21,4.34-14.86,4.51-19.3,4.59-4.62.09-10.51.13-16.92-3.16A29.64,29.64,0,0,1,114,609.09Z" transform="translate(-2.59 -55.34)"/><path class="c" d="M10.33,532.05a24.49,24.49,0,0,0,3.7,7c4.55,6,10.61,8.1,13.77,9.17a36.77,36.77,0,0,0,22.62,0c3.4-1.08,8.65-4.94,19.14-12.65,10.13-7.45,15.25-11.26,17.87-15.34a25.32,25.32,0,0,1,14.08-11.39c6.86-2.53,13.46-5.76,20.4-8.07,15.9-5.28,23.92-7.7,25.94-8.7,0,0,23.89-11.85,32-13.13.32-.05,1.26-.2,1.74.32s.25,1.64,0,2.21c-.1.23-.37.76-1.9,1.9a19.91,19.91,0,0,1-2.06,1.36c-1,1-2.53,2.51-4.43,4.18-8.51,7.46-17,11.74-26.57,15.81-18.53,7.88-18.52,5.33-28.74,10.56-8.39,4.29-13.84,8.94-24.41,18.08-20.8,18-19.15,21.52-30.53,28.31-7.47,4.46-24.2,14.45-38.91,7.43-9.92-4.73-18.44-17-16.77-28.63A22,22,0,0,1,10.33,532.05Z" transform="translate(-2.59 -55.34)"/><path class="c" d="M327.79,561.35a22.14,22.14,0,0,1,7.19-3.82c2.12-.66,4.72-1.08,6.33-3.17.88-1.14.68-1.77.63-1.9-.3-.82-1.65-1-2.21-1.1a33.84,33.84,0,0,0-15.66,1.9c-13.08,5.35-19.62,8-20.25,8.38-2.56,1.41-12,6.78-24.36,17.72-8.67,7.69-7.85,8.47-18.82,19a222.38,222.38,0,0,1-23.26,19.93,136.85,136.85,0,0,1-28.47,15.66,21.73,21.73,0,0,1-6.32,1.74c-10.43,1-19.07-6.84-22.94-10.92a24.77,24.77,0,0,0,9,24.08c8.6,7.12,21.48,8.12,31.35,4.71,6.31-2.17,5.57-4.13,23.73-19.77,12.08-10.4,14.29-11.15,21-18.19,7-7.34,6.11-8.05,14.39-17.72,7.78-9.07,16.46-19.05,29.74-27.36A97,97,0,0,1,327.79,561.35Z" transform="translate(-2.59 -55.34)"/><path class="c" d="M699.92,453.59c-.6,11.87-1.44,25.37-10,39.24-9.56,15.53-23.49,23-36.86,29.9-14.86,7.7-23.19,9.16-50.44,16.95-2.7.77-36.38,10.44-69.67,22-26.26,9.13-39.39,13.69-57.21,22.72-13.73,7-12.31,7.46-42.94,24.63-33.25,18.63-42.09,22.05-52.44,23.93a99,99,0,0,1-38.81-.91c-2.18,1.88-5.41,4.59-9.44,7.71-11.36,8.8-17,13.2-23.41,15.34-3.06,1-18.09,6.1-30.37-2.69a28.58,28.58,0,0,1-10-13.38h0A37.15,37.15,0,0,1,266,628.55a37.46,37.46,0,0,0,18.66,9.81,38.47,38.47,0,0,0,14.55-.16,56.57,56.57,0,0,0,21.36-8.86c5.92-3.94,8.19-7,15.34-9.81a48.31,48.31,0,0,1,7.28-2.21c9.12-2.12,13.94-1,21.83-1.42A70.73,70.73,0,0,0,385,611.62c7.36-2.56,13-5.85,20.4-10.91,10.88-7.43,17.57-13.17,33.38-26.57,21.05-17.85,24.06-20.27,29.1-23.73a213.81,213.81,0,0,1,26.42-15.34c25.52-12.45,49.76-17.38,76.4-22.62,17.13-3.38,28.09-4.69,42.39-12.18,8.19-4.29,16.43-10.06,22.78-19.3a40.84,40.84,0,0,0,7.28-16.45c1.49-8.27.89-21.1-6-26.58-4.88-3.87-7.44-4.74-7.44-4.74-1.74-.6-4.37-1.18-6.48-3.32a4.13,4.13,0,0,1-1.27-2.22,4.54,4.54,0,0,1,1.11-3.48,34.94,34.94,0,0,0,12-4.27A37.93,37.93,0,0,0,646.6,409c3.48-4.89,9.11-14.83,10.91-33.85,1.39-14.67-.13-28.1-2.06-45.09-.81-7.21.23-14.58-.77-21.77-.39-2.83-1.43-9.38,2-15.4A18,18,0,0,1,658,291c0-6.32.14-16.06.31-28,.29-19.52.51-24.39.79-42.24.39-24.24.12-23,.48-42.23.37-19.73.7-23.5,1.1-41.76.47-21.05.52-34.21.5-42.44,0-2.67,0-5.33,0-5.33-.06-8.94-.2-16.35-.32-21.67,6.28-.17,11.73-.29,16-.38l4.39-.09c.56,3.54,1.33,9,1.9,15.65,2.07,24.48-.83,40.22-2.69,59.32-2.39,24.48.44,18.45-1.74,59.79-1.93,36.37-3.87,36.47-4,58.53-.06,17.32,1.33,31.53,4.12,60,2.86,29.26,4.3,43.89,7.27,59.63C693.7,419.71,701.25,427.14,699.92,453.59Z" transform="translate(-2.59 -55.34)"/><path class="d" d="M686.31,400.77a182.59,182.59,0,0,1-3.19,39.61c-1.83,9.46-3.52,17.94-8.44,28.34a82.14,82.14,0,0,1-17.26,25c-2.23,2.16-10.24,9.67-29.14,17.92-14.84,6.49-23.81,7.93-37.17,11.6-16.91,4.66-29.28,10-54,20.57-7,3-28.87,12.51-56.94,27.55-23.77,12.73-27.05,16.07-56.42,31.5-11.25,5.91-26,13.42-46.66,18.72-7.07,1.81-13,2.9-17.14,3.55a14.06,14.06,0,0,0-1.12-8.87l-1.92,5.38L344,631.91a49.63,49.63,0,0,0,9.49,3.56c19.62,5.09,37.33-3.64,62.88-17.4,38.77-20.89,39.09-22.92,59.05-32.69,20.21-9.89,36.27-15.83,51.94-21.62,22.69-8.39,28.58-9.31,65.51-21,69.64-22,79.64-28.43,88.18-38.75,15.53-18.76,18-40.26,18.59-46.27C702.48,429.18,690.64,407.82,686.31,400.77Z" transform="translate(-2.59 -55.34)"/><path class="d" d="M345.17,612.33a23.19,23.19,0,0,1-3.39,9.18,23.79,23.79,0,0,1-6.33,6.49c-13.34,9.69-20,14.68-27.65,16.68-5.63,1.46-24.71,6.43-34.9-3.71a18.85,18.85,0,0,1-3.35-4.54c-.76,2.69-1.36,6.69.41,10.41,3.49,7.31,13.7,8.45,21,9.27,6.73.75,20.46,2.28,30.42-5.87,6.38-5.22,6.2-10.29,14.83-15.14,3.13-1.76,5.69-2.51,7.72-5.56,3-4.53,2.46-10.52,2.32-12A23,23,0,0,0,345.17,612.33Z" transform="translate(-2.59 -55.34)"/><path class="d" d="M324.47,559.71a73.61,73.61,0,0,0-18.37,7.13c-11.19,6.2-18.18,14-24.4,21-12.58,14.23-9.54,16.46-18.07,22.55-5.57,4-11.63,6.43-18.38,14.21-2.09,2.41-2.48,3.3-4.94,5.87a53,53,0,0,1-15,11.27,42.73,42.73,0,0,1-19.61,5.1,41.34,41.34,0,0,1-20.81-5.68,21.06,21.06,0,0,0,6.91,10.93c6.63,5.24,15,4.06,24.09,2.78,7.66-1.08,15.66-2.2,23.48-8.49a38.83,38.83,0,0,0,12.35-18.23,33.89,33.89,0,0,0,7.72-2.78c7.89-4,12.06-10.17,14.21-13.28,10.13-14.66,15.19-22,20.54-27,7.28-6.85,11.57-8,25.18-20.54C321.56,562.52,323.31,560.83,324.47,559.71Z" transform="translate(-2.59 -55.34)"/><path class="d" d="M257.36,538.51a102.81,102.81,0,0,0-26.93,10.57,99.88,99.88,0,0,0-21.78,16.52c-3.53,3.62-3,3.71-15.91,20.08-10.91,13.87-10.61,13-12.81,16.37-8.07,12.47-6.58,16.15-12.82,21.78s-13.51,7.09-19,8.18a55.24,55.24,0,0,1-28.9-2.24,13.17,13.17,0,0,0,3.26,7.49c1.25,1.33,4.18,3.77,14.21,3.87,4.59,0,13.86-.38,26.57-5.26a94.76,94.76,0,0,0,13.59-6.48,30.64,30.64,0,0,1,2.31-15.14,34.25,34.25,0,0,1,5.25-8.18c3.48-4.23,5.66-5.22,8.81-8.19,5.28-5,5.25-8,10.19-15.29,4.15-6.15,8.17-10,12.66-14.21,9.22-8.72,21.81-17.5,29.19-20.85a33.54,33.54,0,0,0,8.19-5.09A33,33,0,0,0,257.36,538.51Z" transform="translate(-2.59 -55.34)"/><path class="d" d="M207,519.19c-2.15,1-5.12,2.4-8.7,3.94-5.32,2.3-10,4.17-15.59,6.18-20.39,7.29-19,6.28-21.32,7.57-7.08,4-11.73,9-16.83,14.51-1.59,1.72-2.29,2.59-9.27,11.43-12.85,16.31-19.29,24.49-20.23,25.95-3.6,5.61-4.34,7.61-7.57,10.19-6.22,5-13.44,5.53-16.52,5.72-11.41.7-20-4.63-23.12-6.84a13.59,13.59,0,0,0,1.65,8.54c.69,1.12,2.54,3.71,13.44,7,9.85,2.93,16,4.65,22.7,2a21.13,21.13,0,0,0,5.56-3.24c.4-8.66,3.17-13.75,5.71-16.83,4.07-4.94,7.86-5.11,14.06-12.2,2.71-3.11,2-3.09,6.64-9.27,4.25-5.66,7.83-9.64,11.12-13.28,6.73-7.45,10.09-11.18,13.43-13.75,5.3-4.07,10.07-6.06,19.62-10,10.12-4.21,15.31-5.7,20.69-11.43A32.66,32.66,0,0,0,207,519.19Z" transform="translate(-2.59 -55.34)"/><path class="d" d="M169.71,489.8a34.27,34.27,0,0,0-7.55,2.91c-3.45,1.83-4.65,3.16-6.79,4.63-4.17,2.86-7.19,2.28-15.45,3.71-4.87.84-8.45,1.9-15.59,4-9.78,2.9-14.68,4.34-19,6.95-1.75,1.06-3,2-17.14,16.84-7.74,8.12-9.15,9.71-13,13.43-6.31,6.14-9.47,9.22-12.66,11.43-4.94,3.43-13.91,9.65-25.95,9.11-3-.13-12.08-.54-19.15-7.41A25.4,25.4,0,0,1,11.76,547a11,11,0,0,0-1.1,3.82c-.33,3.59,1.29,6.9,4.63,11A56.78,56.78,0,0,0,31.35,575a57.86,57.86,0,0,0,28.42,6c-.58-7.18,1.28-11.23,3.18-13.62,3-3.78,6.41-3.82,10.87-8.78,2.76-3,2.82-4.49,5.26-8.49,3.91-6.43,7.24-8.07,15.28-15.75,10.18-9.73,7.81-9.94,13.13-14.06,5-3.82,13.77-6.46,31.2-11.58,11.3-3.32,16.53-5.22,22.55-10A45.63,45.63,0,0,0,169.71,489.8Z" transform="translate(-2.59 -55.34)"/><path class="e" d="M652.33,326.77c0,11.44,1.2,13.18,1.83,27.79.39,8.89.63,15.05-.23,23.45-.93,9.15-1.65,15.56-5.71,22.75a47.55,47.55,0,0,1-9.65,11.86c-1.83,1.57-6.1,5.26-9.64,7-1.66.79-3,2.17-4.68,2.9-.45.19-1.37.57-1.58,1.36a1.6,1.6,0,0,0,.45,1.49c.82.75,2.41.2,3.38-.14,7.77-2.67,7.45-2.5,7.72-2.64,6.47-3.44,9.7-5.16,13.09-8.45a40.84,40.84,0,0,0,9.38-14.59c2.72-6.49,3.39-11.9,4-17.26a93.15,93.15,0,0,0,.65-13.46c0-2.42-.13-6.21-1.83-21.2-1.32-11.64-1.52-11.71-2-17.24-.43-5.27-.54-9.4-.75-17.65,0,0-.41-15.47.9-18.06a3,3,0,0,0,.33-1.83,2.36,2.36,0,0,0-.31-.82c-.17-.29-.46-.76-.9-.83s-1,.41-1.24.68a3.4,3.4,0,0,0-.8,1.51,64,64,0,0,0-1.61,10.55c-.18,3.51-.11-.09-.35,5.17C652.66,313.59,652.33,320.72,652.33,326.77Z" transform="translate(-2.59 -55.34)"/><path class="f" d="M277.32,627.52c-1.65,1.7-3,3.09-2.82,4.21.37,2.21,6.7,3.23,11.45,2.61a10.85,10.85,0,0,0,5.1-1.77,7.57,7.57,0,0,0,3.11-9.43c-.15-.45-1.72-5.16-4.67-5.51s-4.93,4-10.44,8.33A17.23,17.23,0,0,0,277.32,627.52Z" transform="translate(-2.59 -55.34)"/><path class="g" d="M277.49,630.22a26.11,26.11,0,0,0,5.22-2.82,24.78,24.78,0,0,0,5.22-4.93,21.61,21.61,0,0,0,2.14-3.39,2.55,2.55,0,0,0,1.15-1.88c-.09-2.06-4.92-3.55-8.17-4s-7.49-.93-10.36,2.14a9,9,0,0,0-1.43,9.9A9.55,9.55,0,0,0,277.49,630.22Z" transform="translate(-2.59 -55.34)"/><path class="h" d="M273.27,619.48a6.87,6.87,0,0,0-.87,3.89,7.93,7.93,0,0,0,2.29,4.54,12.44,12.44,0,0,0,2.8,2.31c4.16,2.53,9.87,2.61,11.47,2.6a4.62,4.62,0,0,1-.9,1.77c-1.53,1.84-4.2,1.83-6.18,1.79-3.41-.06-7.41-.13-10.51-3.29-.57-.57-4.43-4.5-2.93-8.9A8.3,8.3,0,0,1,273.27,619.48Z" transform="translate(-2.59 -55.34)"/><path class="i" d="M280.78,613.9a16.23,16.23,0,0,1,3.56,1,13.9,13.9,0,0,1,5.73,4.15,16.25,16.25,0,0,1,1.71,2.86,13.14,13.14,0,0,1,1,7,4.9,4.9,0,0,0,2.4-1.88c.93-1.49.64-3.12.36-4.65a12.73,12.73,0,0,0-2-4.79,14.33,14.33,0,0,0-5.86-4.9c-1.36-.62-4.76-2.17-6.26-.75A2.73,2.73,0,0,0,280.78,613.9Z" transform="translate(-2.59 -55.34)"/><path class="f" d="M194.22,622.75c-1.65,1.69-3,3.09-2.83,4.21.28,1.64,4.16,2,11.46,2.61,2.61.23,3.85.23,5.12-.52,2.26-1.33,2.93-4,3.22-5.17a9.75,9.75,0,0,0-.13-5.51c-.15-.46-1.73-5.16-4.67-5.52s-4.94,4-10.45,8.34A16.3,16.3,0,0,0,194.22,622.75Z" transform="translate(-2.59 -55.34)"/><path class="g" d="M191.77,626.58a39.84,39.84,0,0,0,7.36-4.24,23.29,23.29,0,0,0,5-4.55,20.85,20.85,0,0,0,2.54-4,2.6,2.6,0,0,0,.68-1.86c-.27-2.39-5.39-3.64-8.17-4-2.28-.26-7-.8-11,2.36-2.85,2.23-6.69,7.33-4.56,11.74C185.65,626.2,191.46,626.56,191.77,626.58Z" transform="translate(-2.59 -55.34)"/><path class="h" d="M186.87,614.2a8.71,8.71,0,0,0-1.09,5.78c.72,3.64,4,5.51,6,6.6,6.52,3.65,13.68,1.9,16.08,1.19a9.34,9.34,0,0,1-3.68,4.86c-2.08,1.32-4.12,1.24-6.53,1.18-2.71-.06-7.92-.17-12.35-4-1.26-1.08-4.19-3.59-4.68-7.64-.1-.88-.6-5,2.19-7.05A6,6,0,0,1,186.87,614.2Z" transform="translate(-2.59 -55.34)"/><path class="i" d="M191.73,610.08a22.08,22.08,0,0,1,7.62.31c2.31.5,5,1.09,7.36,3.37a11.26,11.26,0,0,1,2.58,3.81A11.67,11.67,0,0,1,210,624a12.89,12.89,0,0,0,1.45-4.16,10.94,10.94,0,0,0-.05-4.25,10.79,10.79,0,0,0-3.19-5.43,12.7,12.7,0,0,0-6.66-3.2c-1.9-.37-4.57-.89-7.14.57A8.2,8.2,0,0,0,191.73,610.08Z" transform="translate(-2.59 -55.34)"/><path class="f" d="M126.43,606.68c-1.65,1.7-3,3.09-2.82,4.21.42,2.52,9.29,2.59,11.45,2.61a14.62,14.62,0,0,0,4.71-.46,10.63,10.63,0,0,0,6.4-5,10.43,10.43,0,0,0,.73-7.69c-.71-2.52-2.89-6.73-5.88-6.89-4.25-.23-7.91,7.84-12.86,11.7A16,16,0,0,0,126.43,606.68Z" transform="translate(-2.59 -55.34)"/><path class="g" d="M126.85,609.84a47.71,47.71,0,0,0,4.94-3.57,38,38,0,0,0,5.37-5.16,35.6,35.6,0,0,0,4.35-6.51,9.12,9.12,0,0,0-2.59-3.64c-3.72-3.09-8.78-1.78-9.82-1.52-3.91,1-6.12,3.57-8.3,6.11-1.6,1.86-3.51,4.14-3.71,7.42a6.59,6.59,0,0,0,.56,3.58C119,609.11,122.67,610.36,126.85,609.84Z" transform="translate(-2.59 -55.34)"/><path class="h" d="M118.1,603.05a19.94,19.94,0,0,0,1.29,1.53,20.62,20.62,0,0,0,4.06,3.3,30.24,30.24,0,0,0,4.11,2.3,27.52,27.52,0,0,0,11.12,2.14,2.36,2.36,0,0,1,.73,1.89c-.44,2-5.56,2.51-8.54,2.42a19.85,19.85,0,0,1-16.68-10.2Z" transform="translate(-2.59 -55.34)"/><path class="i" d="M126.72,591.85a19.59,19.59,0,0,1,8.94,0,11.92,11.92,0,0,1,5.85,2.79,12.09,12.09,0,0,1,2.29,3.21,26.77,26.77,0,0,1,2.7,7,4.25,4.25,0,0,0,2.13-1.89c.91-1.82-.11-3.93-1-5.88a17.59,17.59,0,0,0-2.87-4.2,14.29,14.29,0,0,0-6.15-4.51,10.47,10.47,0,0,0-6.36-.36A10.2,10.2,0,0,0,126.72,591.85Z" transform="translate(-2.59 -55.34)"/><path class="f" d="M67.72,574.49c-.33,1.79,3,3.76,4.75,4.84a18,18,0,0,0,11.46,2.61A10,10,0,0,0,89,580.17a10.74,10.74,0,0,0,3.06-4c1.45-2.7,2.46-4.58,2.26-7.1-.16-2.18-1.31-5.95-3.84-6.72-3.62-1.11-5.6,5.3-14.43,8.79C71.45,573,68,572.76,67.72,574.49Z" transform="translate(-2.59 -55.34)"/><path class="g" d="M69.44,575.71a48.73,48.73,0,0,0,6.41-2.46A47.72,47.72,0,0,0,90,563.05,3.56,3.56,0,0,0,90,561c-1.12-2.9-6.73-3.4-10.15-3-4.41.53-7.33,2.82-9.9,4.84-2.93,2.31-4.81,3.81-5,6.2C64.74,572.77,69,575.46,69.44,575.71Z" transform="translate(-2.59 -55.34)"/><path class="h" d="M66.19,566.92a10.62,10.62,0,0,0,.64,5,11.27,11.27,0,0,0,2.61,3.84,16.92,16.92,0,0,0,17.49,4.7,13.82,13.82,0,0,1-2.37,1.8A16.52,16.52,0,0,1,79.85,584a17.46,17.46,0,0,1-13.49-3.24c-1.31-1-7-5.37-5.64-9.59C61.66,568.25,65.36,567.15,66.19,566.92Z" transform="translate(-2.59 -55.34)"/><path class="i" d="M79.61,559.42a12,12,0,0,1,5.19.33,10.17,10.17,0,0,1,5.23,3.3,10,10,0,0,1,1.83,3.81,14.47,14.47,0,0,1,.11,7.19,7.26,7.26,0,0,0,2.76-3.34c1.17-3-.29-6-1.27-8a11.7,11.7,0,0,0-2.82-3.93c-1.06-.93-3.18-2.79-6.06-2.48A7.35,7.35,0,0,0,79.61,559.42Z" transform="translate(-2.59 -55.34)"/><path class="f" d="M19.65,522.71c-1,3.14,6.27,7.78,16.64,14.38C39,538.83,41.68,540.36,45,540c.86-.09,2.84-.4,7.42-3.75,5.15-3.77,7.73-5.66,9.06-8.61,2.77-6.13.64-15.58-4.24-17.71-5.22-2.27-9,5.78-23.37,9.49C25.14,521.72,20.44,520.31,19.65,522.71Z" transform="translate(-2.59 -55.34)"/><path class="g" d="M22.71,522.9a54.32,54.32,0,0,0,12-1.76,63.26,63.26,0,0,0,14-5.74,84.81,84.81,0,0,0,7.76-4.59,5,5,0,0,0-.07-2.79c-1.59-4.61-10.75-5.36-15.46-5.12a31,31,0,0,0-12.47,3.55c-4.74,2.27-12,5.75-11.74,10.18C16.92,520,21.38,522.25,22.71,522.9Z" transform="translate(-2.59 -55.34)"/><path class="h" d="M19.07,513.22a14.35,14.35,0,0,0,1.76,7.12,15,15,0,0,0,1.88,2.56,60.47,60.47,0,0,0,7,6.92A84.09,84.09,0,0,0,44.32,539a4.77,4.77,0,0,1-1.72,2.68c-.66.47-2.38,1.36-8.69-1a32.72,32.72,0,0,1-8.56-4.21C21,533.4,10.22,524.36,12.69,518,13.1,516.9,14.34,514.7,19.07,513.22Z" transform="translate(-2.59 -55.34)"/><path class="e" d="M39.88,503.8a19.79,19.79,0,0,1,9,1.47,20.77,20.77,0,0,1,7.57,5.54,19,19,0,0,1,4.71,15.38,10,10,0,0,0,2.29-4.55c.58-2.85-.37-5.12-1.3-7.35a22.48,22.48,0,0,0-5.58-7.8c-2.08-1.9-4.38-3.91-8-4.47A13.37,13.37,0,0,0,39.88,503.8Z" transform="translate(-2.59 -55.34)"/><path class="j" d="M296.36,591a70.92,70.92,0,0,0-5.26,7.82c-1.56,2.64-2.33,4.28-2.2,6.36a7.44,7.44,0,0,0,1.59,4.15,8.11,8.11,0,0,0,6.73,2.69,8.59,8.59,0,0,0,4.27-1.71c3-2.16,3.58-5,5.14-8.43,1.46-3.22,3.34-5.61,7.09-10.39a86.68,86.68,0,0,1,8.92-10c2.21-2.11,4.09-3.66,5.87-6.73.87-1.5,3-5.12,1.59-7-.84-1.12-2.59-1.11-3.43-1.1-3.68.05-6.23,2.36-9.53,5.13-7.78,6.53-6.67,4.68-11.25,8.92A95.25,95.25,0,0,0,296.36,591Z" transform="translate(-2.59 -55.34)"/><path class="j" d="M217.89,605.28c1.43-1.82,3.59-4.64,6.11-8.19,3.44-4.84,4.58-6.88,8.68-12.83,3.44-5,5.15-7.49,6.72-9.41a121,121,0,0,1,11.61-12c3.35-3.15,6.64-6.06,9.29-11.12,2.14-4.08,1.55-5.16,1.23-5.5-.72-.78-2.4-.38-3.91.12-5.56,1.84-9.09,5.14-11.49,7.09-5.53,4.47-5.74,2.27-14.55,8.06a66.35,66.35,0,0,0-11.49,9.17,107.26,107.26,0,0,0-7.82,9.53,54.68,54.68,0,0,0-7,10.76c-2.27,4.84-2.24,7-1.59,8.68a7.79,7.79,0,0,0,2.94,3.42C210.9,606.21,216.11,605.58,217.89,605.28Z" transform="translate(-2.59 -55.34)"/><path class="j" d="M165.82,573.87c-2.6,4.3-3.38,7.12-7.09,11-2.46,2.58-3.87,3.16-4.76,3.42-4.53,1.32-8.72-1.83-9.54-2.44-1.22-.92-4.45-3.35-4.52-6.85,0-2,1-3.47,3.18-6.23a109.34,109.34,0,0,1,8.8-9.66c7-6.62,5.55-6.9,10-10.75,4.68-4,9.07-6.07,17.85-10.15,4.79-2.22,6.64-2.78,15.15-6.72,2-.93,6.25-2.47,9.29-4.89,1-.82,2.18-1.51,3.18-2.38,1.47-1.27,2.24-2.22,3.54-2.26a2,2,0,0,1,1.59.49c1.12,1.22-.62,4.39-1.1,5.25a18.5,18.5,0,0,1-5.25,5.87c-4.95,3.73-9,6.35-10.15,7.09a109.15,109.15,0,0,0-12.83,9.65,101.69,101.69,0,0,0-8.92,9.05C170,568.16,167.83,570.56,165.82,573.87Z" transform="translate(-2.59 -55.34)"/><path class="j" d="M96.28,539.4c-2.76,2.34-4.74,3.49-5.5,6.23a9.72,9.72,0,0,0,.36,5.75A13.37,13.37,0,0,0,97,558.22c2,1.29,5,3.29,8.31,2.69s4.63-3.17,7.82-7.7a180.59,180.59,0,0,1,12.1-15.15c3.82-4.16,7-6.52,12.59-10.64a137.61,137.61,0,0,1,18.58-12,79,79,0,0,0,13.81-9.77c1.21-1.07,3.68-3.34,3.18-5.38a2.34,2.34,0,0,0-1.22-1.59c-1.28-.47-2.74,1.06-4.57,2.42-.32.24-2.44,1.31-6.68,3.45-4.92,2.48-8.87,3.57-21,7.82-8.21,2.87-6.31,2.45-11.12,4-6.68,2.21-9.91,2.88-14.42,5.63a42.3,42.3,0,0,0-5.75,4.27C101.47,532.32,102.57,534.07,96.28,539.4Z" transform="translate(-2.59 -55.34)"/><path class="j" d="M146.76,456.65a19.45,19.45,0,0,0-7,2.82c-2.44,1.67-2.91,1.18-10.15,3.78-8.47,3.05-11.52,5-21.63,9.17-9.64,3.94-14.55,5.95-21.88,7.95-3.39.92-8.78,3-19.55,7.09-2,.74-5.14,2-6.73,5.13a10.28,10.28,0,0,0-.36,7.58c1.12,3.52,3.72,5.33,7.82,8.19,3.49,2.43,5.24,3.65,7.58,3.42,1.75-.17,3.12-1.08,6.6-4.52,4.54-4.5,5.55-6.27,7.94-8.68s5.6-4.27,12.1-8.07,11.64-6.32,13.2-7.09c10.26-5,10.9-4.28,15.89-7.58s4.33-4,10.27-7.94c2.5-1.66,4.45-4.06,6.84-5.87.78-.59,2.33-1.72,2.28-3.21a2.42,2.42,0,0,0-.88-1.77A3,3,0,0,0,146.76,456.65Z" transform="translate(-2.59 -55.34)"/><path class="e" d="M64.9,495a50.75,50.75,0,0,1,12.78,15.28A17.13,17.13,0,0,0,64.9,495Z" transform="translate(-2.59 -55.34)"/><path class="e" d="M99,502A22.3,22.3,0,0,0,97,493.89a20.17,20.17,0,0,0-6-7.69,19,19,0,0,0-5-2.74,58.34,58.34,0,0,1,5.57,6.08A55.45,55.45,0,0,1,96.61,497,50.34,50.34,0,0,1,99,502Z" transform="translate(-2.59 -55.34)"/><path class="e" d="M223.21,588.53a21.44,21.44,0,0,1,7.95,6.05,88.1,88.1,0,0,0-9.92-4.45,87.18,87.18,0,0,0-10.09-3.1A21.63,21.63,0,0,1,223.21,588.53Z" transform="translate(-2.59 -55.34)"/><path class="k" d="M644.88,258.48c.11-.35.4-1.16.92-1.24s1.06.67,1.24.93c3.29,4.72,3.26,37.55,3.26,37.55,0,7.62.52,5.36.76,16.84.25,12-.35,13.87-.46,28.9-.11,13.08,0,26.27,0,26.27.08,11,.22,14.71-1.55,20.24a33,33,0,0,1-9.27,15.3c-5.43,4.86-11.09,6.27-17,7.73-4.73,1.17-11.26,2.7-18.85.62-2.86-.79-6.89-2-9.58-5.72a11.71,11.71,0,0,1-2.32-6.65c-.06-5.31,4-9,5.87-10.66,3.47-3.12,6.14-3.59,9.43-5.25,6.33-3.2,9.49-8.07,15-16.54s8-15.88,10-22.1a125.68,125.68,0,0,0,4.95-21.48c1-7,.62-8.83,2.16-24.1,1-10.4,1.07-8.19,1.27-11.62C640.74,287.5,641.92,267.2,644.88,258.48Z" transform="translate(-2.59 -55.34)"/><path class="l" d="M626.91,190.46c-.31,14.52-.46,21.78-.3,30.07.34,17.95,1.36,20.9.3,30.06a100.92,100.92,0,0,1-8.89,31c-3.93,8.33-9.94,15.89-21.78,30.67-16.53,20.62-18.24,20.42-24.55,30.68-6.77,11-13.44,22.17-12.57,35.59.71,11.06,3.06,17.48,3.06,17.48,2,5.38,4.14,8.29,4.3,13.81a25.64,25.64,0,0,1-2.15,10.43c-4.41,10.87-13.27,17.4-16,19.33-35.74,25.7-48.17,32.21-48.17,32.21-21.93,11.49-37.5,19.65-61,28.22C417,508.07,400,514.25,375.66,516.87A213.35,213.35,0,0,1,323.2,516c-10.78-1.52-26.66-6.55-58-16.56,0,0-20.28-6.48-78.53-35-.38-.19-9.21-4.62-12-11.36a18.1,18.1,0,0,1-1.22-5.52,18.6,18.6,0,0,1,1.22-6.75c3-7.67,14.73-13.49,14.73-13.49,9.74-4.86,19-10.73,28.84-15.34,6.17-2.89,14.85-7.86,32.21-17.8,27.85-15.94,27-17.24,43.87-26.07,3.13-1.64,14.6-6.84,37.42-17.18,23.67-10.73,35.64-16.15,42.34-19,22.86-9.82,24.38-9.65,37.12-15.65,21-9.88,31.49-14.82,38.65-21.17,27.45-24.3,28.58-64.3,28.84-73.32.16-5.58-2-19.47-6.44-47.24-4.55-28.69-6.52-37.27-9.82-58.29-2-13-4.88-32.66-7.44-57.12,34.2,5.45,59.21,6.51,99,8.07,16.75.65,50.09,2,75.29,1.11.19,3.36.44,8.27.63,14.2.53,16.46.25,29.24,0,38C629,155.37,627.59,159.13,626.91,190.46Z" transform="translate(-2.59 -55.34)"/><path class="m" d="M228.72,420.39a13.47,13.47,0,0,0-5.82,6.46,12.82,12.82,0,0,0,0,8.56c1.75,4.86,6.14,7.09,13.09,10.5a65.39,65.39,0,0,0,18.9,6.46c4.74.81,12,2.06,20.51.16,4.74-1.06,10.61-3.28,20.83-11.31,11.74-9.22,15.86-15.63,26.33-26.81a261.7,261.7,0,0,1,26.82-24.88A219.21,219.21,0,0,1,389,363.85c11.11-5.56,16.72-8.61,27.94-14.7,5.64-3.06,15.88-8.76,18.09-17.12a9.43,9.43,0,0,0-.32-6.78c-1.58-3.09-5-4.16-6.78-4.69-7.3-2.16-14.3.55-16.16,1.3-31.29,12.55-45.22,21-45.22,21-11.88,7.2-24.27,13.5-36.35,20.36-36.84,20.91-55.26,31.37-56.37,31.82C273.78,395,263.18,399.29,228.72,420.39Z" transform="translate(-2.59 -55.34)"/><path class="m" d="M545.43,221.4c-1.33-19.91-2.69-34.54-11.08-38.6a5.75,5.75,0,0,0-3.06-.77c-6.81.48-10.49,15.81-15.86,37.51-3.36,13.54-8.11,32.72-11,43.61-6.3,23.63-9.45,35.44-15.55,46.92-7.28,13.68-14.24,19.37-35.16,39.36-41,39.15-33.51,35.72-68.41,68-29,26.83-43.49,40.25-47,42.8-9.7,7-16.34,17.88-26.37,24.46-.91.6-4.59,2.95-5.35,6.88-.08.42-.64,3.58,1.15,5.35s5.28,1.08,8.41.38c17.4-3.91,16.6-3.59,17.19-3.82,31.18-12.24,42.42-19.11,42.42-19.11,14.74-9,29.66-19.48,56.95-41.27,30.67-24.5,46.38-37.14,64.58-56.57,14.22-15.17,21.33-22.76,28.29-34.39,19-31.75,21.26-63,22.16-77.58C548,260,547.15,247.12,545.43,221.4Z" transform="translate(-2.59 -55.34)"/><path class="e" d="M705.27,447.57c-.62-13.68-3.14-22.9-5.74-33.76-2.37-9.9-4.68-22-9.28-46.14a541.19,541.19,0,0,1-8.32-57.56c-2-23.5-1.84-42.39-1.58-66.27.54-48.84,2.87-49.78,3.53-98.74.45-32.64-.21-59.71.89-65.76.68-3.77-.13-7.67.18-11.49a3.31,3.31,0,0,0-.36-1.85,2.12,2.12,0,0,0-1.15-1.07,1.78,1.78,0,0,0-1.5.18,1.73,1.73,0,0,0-.62,1.06,3,3,0,0,0,0,1.42c.07,17.9-.55,32.23-1.14,42-.65,11-1.59,21.78-3,46.22-.22,3.83-.17,3.18-.54,9.51-.48,8.35-1.52,25.57-2.71,44.18-2.51,39.31-3.2,48.31-3.1,65,.14,21.59,1.51,38.93,2.48,49.05a448.85,448.85,0,0,0,8,55.16c2.94,13.68,6,24.28,9.37,45,1.69,10.26,2.54,15.51,2.74,21.65.4,12,1,28.51-8.48,44-6,9.81-13.45,15.13-20.16,19.89-8.84,6.28-16.24,9.24-37.47,16.44-19.67,6.66-34.88,11.43-50.74,16.44-27.43,8.67-33.21,10.62-36.75,11.82-18,6.13-27,9.19-39.62,14.52,0,0-22.15,9.42-41.45,20.42-15.37,8.76-15.44,10.25-38.28,23.6-13.47,7.88-21.12,11.85-31.2,15.29-12.78,4.37-21.49,5.17-26,5.39a85.4,85.4,0,0,1-17.76-1,23.64,23.64,0,0,0,11-9.81,22,22,0,0,0,2.3-6.1,30.05,30.05,0,0,1-12.2,10.87c.65-1.48,2.79-6.89.35-12.11a11.66,11.66,0,0,0-1.77-2.74,23.92,23.92,0,0,1-.08,8.58,18.55,18.55,0,0,1-2.3,6.36,17.14,17.14,0,0,1-3,3.71,12.49,12.49,0,0,0-3.18,1.15,14.34,14.34,0,0,0-4.24,3.63c-1.72,1.93-3.62,3.69-5.31,5.65-3.67,4.29-9.11,6.51-13.52,8.31-5.2,2.12-13.89,5.68-24.39,3.45-3.53-.75-9.59-2-14.5-7.43a23.88,23.88,0,0,1-5.92-13.7c.67.77,5.5,6,13.08,5.75,1.33,0,7.67-.45,11.76-5.75a13.5,13.5,0,0,0,2.91-9.9c-.74-5.53-5-8.48-6.19-9.28a11.17,11.17,0,0,0-6.89-2.38,10.52,10.52,0,0,0-5.83,2q2.83-4.05,5.92-8.22c2.1-2.84,4.2-5.58,6.27-8.22a25,25,0,0,1,14.5,8.4,21.47,21.47,0,0,0-12.73-11.14A81.1,81.1,0,0,1,301.6,581a69.11,69.11,0,0,1,9.72-8.39c2.3-1.58,13.94-9.3,15.91-10.7a1.87,1.87,0,0,0,.89-1.24,1.56,1.56,0,0,0-.71-1.41,2.1,2.1,0,0,0-1.77,0,15.29,15.29,0,0,0-4.81,3,42.32,42.32,0,0,1-5.27,3.35c-6.12,3.92-14,8.93-18.29,12.64-2.74,2.39-1.47,1.79-13.44,16.89-8.05,10.16-5.23,6.07-11.93,14.58-4.75,6-7.1,9.3-11.76,12.73a41.56,41.56,0,0,1-9.28,5.13,46.31,46.31,0,0,1-31.46,23.07c-6,1.19-21.87,4.34-31.56-5.66-5.49-5.67-6.6-13.08-6.81-17.33,1,1.24,6.11,7.5,14.59,8,1.81.11,7.13.46,11.67-3.27,5.1-4.2,5.41-10.41,5.48-11.85.09-1.92.33-6.72-3.1-10.6a13.92,13.92,0,0,0-9.1-4.34c-4.25-.46-7.64,1-10.61,2.3a30.47,30.47,0,0,0-5.21,2.92c1.81-2.34,3.89-4.82,6.27-7.34,1.74-1.84,3.46-3.52,5.13-5a32.43,32.43,0,0,1,4.77-.18,33.94,33.94,0,0,1,6.19.79,11.91,11.91,0,0,0-4-2.56,11.64,11.64,0,0,0-4.77-.79,65.06,65.06,0,0,0,9.37-11.14c3.18-4.8,3.28-6.34,5.74-10,4.14-6.15,8.94-9.48,15.12-13.52,4.59-3,27.34-17.25,30-20.25.28-.31,1.05-1.16.8-1.76s-1.11-.59-1.42-.62c-3.19-.27-9.36,4.91-15,8.84-1.82,1.26-3.36,2.33-5.62,3.62-4.32,2.47-6.77,3.11-12.59,7.25A93.36,93.36,0,0,0,208.61,573c-7.32,8.23-6.18,9.44-13.52,17.94-8.68,10-11.89,10.22-15.91,17a40.22,40.22,0,0,0-5.3,21c-5.51,3.81-15.7,9.6-29.08,10.17-5.27.22-12.32.43-19.27-3.89a23.37,23.37,0,0,1-9.46-10.43,23.09,23.09,0,0,1-1.42-14c.9,1,7,7.77,16.36,7.43a20.93,20.93,0,0,0,11.84-4.51c2.54-1.91,6.08-4.57,7.07-9.37,1.28-6.19-2.67-11.1-3.45-12A16.22,16.22,0,0,0,137,587a18.06,18.06,0,0,0-7.34.09l14.85-16.88a28.14,28.14,0,0,1,15.29,6.89A20.94,20.94,0,0,0,147.54,567c3.34-3.39,5.84-6.33,7.51-8.4,2.45-3,3.43-4.56,5.66-6.89a45.1,45.1,0,0,1,7.15-6.1,28.7,28.7,0,0,1,14.32,10.07,17.58,17.58,0,0,0-5.56-8.83,17.13,17.13,0,0,0-6-3.27c3.63-1.55,13.3-5.72,22.63-10.61a56,56,0,0,0,6.27-3.86c1.75-1.41,1.28-1,4.16-3,2.18-1.56,5.25-3.67,6.54-6.1a1.87,1.87,0,0,0,.27-1.67c-.31-.52-1.12-.54-1.42-.53H209c-1,.07-2,1.43-2,1.43-1.15,1.65-8.41,7.48-13.77,10.5-1.57.88-3.87,1.85-8.46,3.79-3.32,1.4-3.55,1.33-6.83,2.75-7.52,3.25-12.37,5.34-17.15,8.75-4.62,3.3-5.52,5.23-13.25,14.23C140,568,132.65,576.54,123.4,585.73c-4.21,4.19-8,7.7-11,14a40.45,40.45,0,0,0-3.54,11.85,28.83,28.83,0,0,1-5.57,1.76c-10.36,2.17-19-2-21.74-3.44a40.32,40.32,0,0,1-15-14.23A29.17,29.17,0,0,1,63,587.14a28.09,28.09,0,0,1-.71-7.34,22,22,0,0,0,4.33,2.83A22.7,22.7,0,0,0,77.88,585a19.7,19.7,0,0,0,10.7-3.62c1.29-1,7.66-5.63,7.42-13.26,0-.49-.34-7.41-5.92-11a12.85,12.85,0,0,0-7.25-2,12.38,12.38,0,0,0-5.3,1.41q9.52-9.44,19.09-20.06,2.38-2.65,4.69-5.31a26.3,26.3,0,0,1,5.12,2c1.79.93,2.66,1.66,5.66,3.53,1.51.94,2.75,1.67,3.54,2.12a21.23,21.23,0,0,0-7.52-7.95,20.54,20.54,0,0,0-4.5-2c1.77-1.79,3.32-3.25,4.5-4.33a44.46,44.46,0,0,1,4.12-3.47l.21-.15a25.85,25.85,0,0,1,4.25-2.39,25.15,25.15,0,0,1,4.51,1.59,31.05,31.05,0,0,1,6.36,4.16,52.12,52.12,0,0,1,4.24,3.71,19.77,19.77,0,0,0-3.62-5.75,18.45,18.45,0,0,0-4.16-3.44,16.6,16.6,0,0,0-4.24-1.77,128.27,128.27,0,0,1,14-5.39c7.28-2.33,9.4-2.27,15.38-4.78a79.24,79.24,0,0,0,11.31-5.92c4-2.5,6.91-4.32,9.55-7,1.47-1.48,3.87-4.24,5.48-5.13a5.94,5.94,0,0,0,1.59-1.32,2.79,2.79,0,0,0,.7-1.24c0-.13.27-1.13-.17-1.5s-1.58.11-2.21.44a22.42,22.42,0,0,0-6.27,4.82c-.75.9-3.57,2.85-9.2,6.76-8,5.55-16.72,8.08-21.74,9.54-6.63,1.93-10.72,2.58-18.75,5.59a45,45,0,0,0-5.21,2.37,73.47,73.47,0,0,0-13.08,8.93C95.32,528,91.92,532,85,540.38,77.14,550,71,557.57,67.1,562.3a13.56,13.56,0,0,0-4.6,2.92c-5.14,5-4.14,12.6-4,13.7a43.55,43.55,0,0,1-16.09-1.77c-8.38-2.56-13.71-7-17.32-10.07C21,563.57,16.75,560,13.89,553.64c-1.66-3.67-2.22-6.88-3-11.31-1.13-6.44-.71-9.5-.44-11a23.74,23.74,0,0,1,1.86-5.75,46.89,46.89,0,0,0,6.89,8.66,32.82,32.82,0,0,0,8.31,6.37,22.72,22.72,0,0,0,6.81,2.47,21.76,21.76,0,0,0,7.25.09c4.53-.71,7.57-2.71,10.78-4.86,5.39-3.62,9.26-6.23,11-11.31a18.73,18.73,0,0,0,.62-9.2,21.5,21.5,0,0,0-3.19-8.22c-1.64-2.67-4.06-6.59-8.57-8.13-2.22-.76-4.13-.62-8-.35a44.58,44.58,0,0,0-8.4,1.41,322.15,322.15,0,0,1,32.44-17.94c5.55-2.66,10.45-5,17.5-7.69,10.92-4.15,14.93-4.5,23.86-8,6.64-2.56,11.41-5.07,20.78-10.34,20.65-11.61,32-18.85,49.85-29.43,13.13-7.77,23.48-13.61,31-17.86C232.22,399.58,234.16,399,249,390.56c28.43-16.19,24.27-15.8,41.36-24.66,13.2-6.84,27.15-13.32,44.2-21.12,4-1.83,9.41-4.29,18.29-8.4,13.9-6.43,20.84-9.64,25-11.76,13.86-7,22.92-11.56,33-20a121.75,121.75,0,0,0,24.48-28.29,129.37,129.37,0,0,0,15-34.73c5-17.26,5.76-30.84,6.72-48.35.71-13.22.43-23.08,0-38.54-.54-19-1.65-29.42-2-32.88-.87-7.8-1.94-14.75-2.74-20-2.87-18.71-3.43-16.77-4.06-24.48-.44-5.24-2.42-10.31-2.57-15.56a13.64,13.64,0,0,0-1.59-5.13A2.33,2.33,0,0,0,443,55.57a1.8,1.8,0,0,0-1.77,0c-.8.63-.26,2.54-.08,3.18,1.05,3.91.67,8.12,1.76,12,.71,2.51,1.45,10,2.92,25,1.07,10.88,1.61,18.9,2.21,27.93.94,14.1,1.41,21.15,1.59,30.06.15,7.18.35,17.73-.53,31.46a254.34,254.34,0,0,1-4.42,36.24c-2.12,10.6-3.89,19.41-8.57,30.67a122.72,122.72,0,0,1-16.53,28.55,114.42,114.42,0,0,1-24.31,22.81c-9.18,6.37-16.05,9.12-26.78,13.79,0,0-20.37,8.87-54.27,25.72-21.88,10.87-38.68,20.45-44.46,23.78-14.16,8.15-15.19,9.33-39.16,23.42-18.06,10.62-18.37,10.48-32.17,18.74-5.73,3.43-5.76,3.5-35.27,21.65-14.54,8.95-20.79,12.78-30,18.12-16.7,9.73-22.46,12.46-24.75,13.53C97,467.6,97,466.24,81.86,472.68A329.89,329.89,0,0,0,49.07,489,131.66,131.66,0,0,0,35.19,498a127,127,0,0,0-11,9.19c-2.06.76-7.12,2.77-10.69,5.92a7.71,7.71,0,0,0-2.39,3.27,7.54,7.54,0,0,0-.09,4.42,29.71,29.71,0,0,0-4.5,8C3,538,5.23,546.36,6.29,550.11c2.87,10.15,9.05,16.3,12.46,19.62A45.85,45.85,0,0,0,41.2,582.37a44,44,0,0,0,16.8.35,35.38,35.38,0,0,0,2.21,11.85,37,37,0,0,0,14,17.5A38.07,38.07,0,0,0,96.8,618.7a37.05,37.05,0,0,0,12.11-2.57c.08,2.75.71,14.24,9.63,22,7.68,6.69,17,6.71,24,6.72a50.83,50.83,0,0,0,19.53-4.07,51.76,51.76,0,0,0,12.9-7.86,32.77,32.77,0,0,0,8.31,16.61c10.84,11.26,26.71,9.79,32.09,9.29,2.92-.28,22-2.35,33-18.21a39.58,39.58,0,0,0,5.3-11,17.35,17.35,0,0,0,4.69-1.68,17.16,17.16,0,0,0,4.06-3A29.43,29.43,0,0,0,281,657.68c7.13,2.91,13.24,2.37,19,1.85a53,53,0,0,0,18.65-5.21c4.91-2.42,8.45-4.17,11.75-8,1.86-2.13,3.36-4.59,7-8a51.17,51.17,0,0,1,4.59-3.89,61,61,0,0,0,14.94,3.89c3.15.4,14.69,1.6,36.51-5.92,10.59-3.66,17.58-7.29,31.46-14.5,11.31-5.87,13.36-7.49,28.73-16,17.44-9.66,26.17-14.49,36.77-19.36,12.8-5.87,22.29-9.1,41.28-15.55,10.42-3.55,21.68-7,44.19-13.88,2.85-.87,18-5.51,37.13-11.4,14-4.32,17.07-5.35,20.82-6.65,22.39-7.78,31.22-12.89,33.89-14.48,10.11-6,15.38-11.08,16.7-12.37a65.27,65.27,0,0,0,11.76-14.94,67.15,67.15,0,0,0,7.34-20.59A96.23,96.23,0,0,0,705.27,447.57ZM270.6,624.74a10.45,10.45,0,0,1,2.67-5.26,21,21,0,0,1,3.34-2.87,39.06,39.06,0,0,1,4.17-2.71,7.3,7.3,0,0,1,2.84-1.13,6.72,6.72,0,0,1,2.71.27,10.82,10.82,0,0,1,5.26,3.92c1.43,1.78,3.55,4.41,3.14,7.71a9.6,9.6,0,0,1-1.92,4.3,14,14,0,0,1-3.85,3.85c-5.62,3.63-16.16,1.25-18.1-3.92A8.69,8.69,0,0,1,270.6,624.74ZM183.41,621a10.25,10.25,0,0,1,2.17-5.43c1-1.43,4.52-6.67,11.16-7.54,1.44-.19,6.62-.87,10.52,2.74,4.9,4.54,3.29,11.64,3.16,12.16a12.3,12.3,0,0,1-3.57,6.19c-4.17,3.8-9.7,3.13-11.8,2.87s-6.2-.75-9.06-4.09A10.05,10.05,0,0,1,183.41,621Zm-65-18.89a51.33,51.33,0,0,1,5.35-7.44c2-2.29,3-3.43,4.78-4.29a12,12,0,0,1,6.2-1.15,13.13,13.13,0,0,1,7.57,3.23,14.73,14.73,0,0,1,3,3.58,10,10,0,0,1,1.72,4.56,8.49,8.49,0,0,1-.62,3.85c-1.06,2.78-3.11,4.35-5.71,6.33a21,21,0,0,1-3.71,2.39,14.78,14.78,0,0,1-5.89,1.82,13.29,13.29,0,0,1-6.06-1.2,14.85,14.85,0,0,1-7.35-5.44,12.62,12.62,0,0,1-1.37-2.7C116.84,604.74,117.54,603.51,118.44,602.07ZM63.18,569.89A6.9,6.9,0,0,1,66,567.07c6.64-4.18,10.84-6.29,12.37-7.07,4-2,4.76-2.46,6.25-2.4,3.68.14,6.18,3.07,6.62,3.6a10.71,10.71,0,0,1,2.53,6.37,11,11,0,0,1-1.41,5.75,13.24,13.24,0,0,1-2.23,3A17.66,17.66,0,0,1,80.4,582c-4.6.81-8.11-.67-10.84-1.82s-5.13-2.16-6.29-4.76A7,7,0,0,1,63.18,569.89ZM14.87,517.25c.66-1.83,2-3,4.24-4.5s4.67-2.76,11.31-5.34A79,79,0,0,1,41.05,504a27.68,27.68,0,0,1,4.24-.68,19.41,19.41,0,0,1,5.34.16c3.82.83,6.13,4,7.9,6.39,1.53,2.08,3.87,5.26,4,9.89a15.19,15.19,0,0,1-1.62,7.07c-1.58,3.25-3.8,5-6.34,7A32.44,32.44,0,0,1,44.61,539a19.11,19.11,0,0,1-4.82,1,17.66,17.66,0,0,1-6.12-.84c-.89-.27-3.87-1.27-9.79-6.17-5.07-4.21-7.66-6.42-8.85-10.32A8.71,8.71,0,0,1,14.87,517.25Z" transform="translate(-2.59 -55.34)"/></svg>