<svg xmlns="http://www.w3.org/2000/svg" xmlns:xlink="http://www.w3.org/1999/xlink" viewBox="0 0 536.24 717.51"><defs><style>.a{fill:url(#a);}.b{fill:#d8b09a;}</style><linearGradient id="a" x1="548.62" y1="981.35" x2="545.96" y2="335.42" gradientTransform="translate(307.63 -284.47) rotate(25.05)" gradientUnits="userSpaceOnUse"><stop offset="0" stop-color="#e0ccb1"/><stop offset="0.31" stop-color="#e0a28b"/><stop offset="0.67" stop-color="#e1d0b4"/><stop offset="0.84" stop-color="#dfceb4"/><stop offset="0.95" stop-color="#e8dcc8"/></linearGradient></defs><path class="a" d="M453.07,905.88c-34,0-59.58-16.22-71.86-24-19.12-12.13-45.27-35.18-61.29-76.07-14.75-37.65-11.23-70.1-8.91-91.57,3.6-33.3,13.81-62.76,19.58-77.36,3-7.62,8.64-20.93,14-33.13,3.73-8.44,6.59-14.66,8.89-19.65,4.72-10.25,7.09-15.39,10-24.57a198.35,198.35,0,0,0,7.63-35.32,152.24,152.24,0,0,0,1.07-22.81A121,121,0,0,1,374,475.56a245.05,245.05,0,0,1,18.68-58c5.12-10.63,9.17-19,16.83-28.68,2.42-3,4.41-5.23,6.17-7.15a50.84,50.84,0,0,0,8.1-10.86c2.2-3.94,5.53-9.9,6.42-18.25a41.2,41.2,0,0,0-1.58-16.43c-2.88-2.65-5.68-5.46-8.32-8.37A128.67,128.67,0,0,1,399.49,297c-4.82-10.3-8.62-18.44-9-30.25a61.13,61.13,0,0,1,6.13-28.57c11.26-22.72,35-30.76,47.77-35.09a107.25,107.25,0,0,1,34.44-5.63,111.16,111.16,0,0,1,67.43,22.74c6.33-7.93,20.29-21.82,42.38-25.16a62.81,62.81,0,0,1,9.38-.7c17.65,0,31,7.56,35.35,10a76.62,76.62,0,0,1,24.34,22,59.45,59.45,0,0,1,25.59-5.91,56.29,56.29,0,0,1,7.1.45c20.73,2.63,33.65,15.75,39.52,23.33A63.05,63.05,0,0,1,741.63,270h1.17a62.33,62.33,0,0,1,60,43.93,68.21,68.21,0,0,1,1.68,35.31,76.93,76.93,0,0,1-8.5,23.34c8.26,2.38,22.16,8.26,32.29,22.28,9,12.42,12.43,27.49,10.24,44.79-2.23,17.6-10.56,32.76-23.44,42.71-10.47,8.07-23.52,12.34-37.75,12.34a74.22,74.22,0,0,1-14.47-1.43,117.89,117.89,0,0,1,3.94,21.34c1.85,20.58-2.27,35.95-5.91,49.51a197.38,197.38,0,0,1-23.62,54.14,192.71,192.71,0,0,1-28.57,35.46,124.72,124.72,0,0,1-18.23,14.58c-4.59,3.18-10.29,7.15-18.86,13.75-13.79,10.63-22.41,18.37-39.56,33.77-23.86,21.44-34.68,31.36-41.13,42-4.2,6.91-5.55,10.93-8,18.22-1.64,4.87-3.68,10.93-7.27,20.09-9.28,23.66-16.6,42.35-27.48,57.83-7.11,10.1-33.78,43.62-78.57,50.67a106.14,106.14,0,0,1-16.49,1.29Z" transform="translate(-305.89 -191.38)"/><path d="M598,197.38c16.46,0,28.84,6.8,33.87,9.65a73.63,73.63,0,0,1,24.84,23.25,57,57,0,0,1,26.57-6.76,54.11,54.11,0,0,1,6.72.42c20.86,2.65,33.29,16.72,37.52,22.2a60,60,0,0,1,11.63,26.95c.88-.06,2.12-.12,3.64-.12a59.31,59.31,0,0,1,57.13,41.87c5,15.09,2.71,27.85,1.58,33.82a74.09,74.09,0,0,1-10.2,25.82c4.52.95,22.3,5.22,34.51,22.11,12.65,17.49,10.49,36.35,9.69,42.65-.67,5.31-3.68,26.35-22.29,40.71-12.08,9.32-25.41,11.72-35.92,11.72a67.62,67.62,0,0,1-18.89-2.61,114.6,114.6,0,0,1,5.37,25.79c1.77,19.65-2.07,34.5-5.82,48.47a194.94,194.94,0,0,1-23.26,53.31,188.09,188.09,0,0,1-28.11,34.9c-12,11.52-16,12.05-36.84,28.11-13.89,10.7-22.79,18.7-39.74,33.93-23.16,20.8-34.87,31.42-41.69,42.65C581.18,768,582,771.61,572.81,795c-9.08,23.16-16.46,42-27.14,57.19-5.27,7.5-31.18,42.29-76.58,49.44a102.75,102.75,0,0,1-16,1.25c-33.16,0-58.42-16-70.25-23.55-40.25-25.56-55.54-63-60.1-74.64-14.48-37-11-69.33-8.73-90.15,3.92-36.16,15.61-67,19.39-76.58,3.12-7.91,8.86-21.41,14-33,11.33-25.67,14.6-30.6,19-44.53a201,201,0,0,0,7.75-35.87c2.72-22.73-.84-26.81,2.91-48.47a242.67,242.67,0,0,1,18.42-57.19c5.14-10.66,9-18.72,16.48-28.11,6.51-8.2,9.79-9.92,14.54-18.42,2.46-4.41,5.84-10.61,6.78-19.39a44.63,44.63,0,0,0-1.93-18.41c-2.28-2.07-5.34-5-8.73-8.73a124.37,124.37,0,0,1-20.36-30.05c-4.72-10.11-8.35-17.88-8.72-29.08a58.42,58.42,0,0,1,5.82-27.14c10.71-21.61,33.21-29.23,46-33.57a104,104,0,0,1,33.48-5.48,108.2,108.2,0,0,1,68,24c2.86-4,16.94-22.59,42.28-26.42a59.26,59.26,0,0,1,8.93-.67m0-6h0a66.18,66.18,0,0,0-9.83.74c-21.14,3.19-35.14,15.6-42.42,24a114.2,114.2,0,0,0-66.94-21.64,110.09,110.09,0,0,0-35.4,5.79c-13.17,4.46-37.69,12.77-49.5,36.59a64.34,64.34,0,0,0-6.44,30c.41,12.42,4.52,21.23,9.29,31.42a130.11,130.11,0,0,0,21.35,31.55c2.51,2.76,5.16,5.44,7.9,8a38.21,38.21,0,0,1,1.24,14.47c-.83,7.75-3.85,13.16-6.06,17.11a48.09,48.09,0,0,1-7.7,10.3c-1.79,2-3.81,4.17-6.3,7.31-7.87,9.91-12,18.44-17.18,29.23a215.07,215.07,0,0,0-12,30.88,212.89,212.89,0,0,0-7,27.9,123.52,123.52,0,0,0-1.91,26.37,150.08,150.08,0,0,1-1,22.41,195.87,195.87,0,0,1-7.53,34.78c-2.82,9-5.16,14.08-9.82,24.21-2.31,5-5.18,11.24-8.91,19.7-5.4,12.21-11.05,25.57-14.08,33.24C322,650.5,311.67,680.25,308,713.89c-2.36,21.77-5.92,54.66,9.1,93a168.24,168.24,0,0,0,17.27,33.26,153.43,153.43,0,0,0,45.2,44.26c12.52,8,38.57,24.48,73.47,24.48A108.38,108.38,0,0,0,470,907.55c20.3-3.19,39.21-11.9,56.22-25.87a135.75,135.75,0,0,0,24.34-26c11.09-15.77,18.47-34.6,27.82-58.45,3.62-9.23,5.67-15.33,7.32-20.23,2.47-7.32,3.71-11,7.73-17.63,6.23-10.26,16.94-20.08,40.57-41.3,17.1-15.36,25.68-23.07,39.39-33.64,8.51-6.55,14.18-10.49,18.74-13.66a128.29,128.29,0,0,0,18.59-14.87,195.59,195.59,0,0,0,29-36,200.52,200.52,0,0,0,24-55c3.52-13.12,7.89-29.45,6-50.56A120.71,120.71,0,0,0,766.9,497a77.51,77.51,0,0,0,10.4.71c14.9,0,28.59-4.48,39.58-13,13.53-10.43,22.26-26.31,24.58-44.71,2.29-18.07-1.33-33.86-10.78-46.92a62.85,62.85,0,0,0-30.39-22.28,79.77,79.77,0,0,0,7.12-21c1-5.45,3.77-19.94-1.78-36.81A65.31,65.31,0,0,0,744,267a65.84,65.84,0,0,0-11.75-24.51c-6.15-7.95-19.71-21.71-41.51-24.48a60.33,60.33,0,0,0-7.48-.47,62.25,62.25,0,0,0-24.62,5.17,79.54,79.54,0,0,0-23.83-20.88c-4.55-2.58-18.39-10.43-36.83-10.43Z" transform="translate(-305.89 -191.38)"/><path class="b" d="M480.3,356.06c4.71-1.13,11.51-2.83,19.66-5.08,21.38-5.91,32.07-8.87,39.33-13.32,17.63-10.82,25.14-28,27.28-33a76.11,76.11,0,0,0,5.09-41.73c.71,1.64,1.78,4.11,3.06,7.11,4.91,11.46,5.28,12.71,6.13,14.48,5.25,10.82,16.87,16.08,19.24,17.09,12.15,5.21,23.38,2.45,28.65,1.15,21.36-5.26,32.94-22.18,36.16-27.28-.16,3.19-.14,11.9,5.7,19.67,5.74,7.62,13.76,9.86,19.67,11.42,20.12,5.31,38.31-2.82,45.31-6.42-.52,1.75-1.3,4.42-2.23,7.67-5.61,19.58-8.42,29.47-8.19,34.27.66,14,11.24,24,13.32,26,13.1,12.43,33.7,15.57,52.87,8.48-1.08.47-23.57,10.52-28.13,30.85a49.33,49.33,0,0,0,1.9,26.64c1.47,4,7.51,19.75,24.74,27.28,18.23,8,34.84.57,37.43-.63a71.87,71.87,0,0,1-24.74,20.93c-5.24,2.67-30.84,14.88-52.65,4.44-7.14-3.42-15.12-11.58-31.08-27.91-7.6-7.77-12.49-13.5-20.94-14.59-8.72-1.13-16,3.36-18.39,5.07-8,5.62-10.76,13.9-14.59,26s-2.61,14.41-5.71,26a118,118,0,0,1-12.69,30.45c-8.87,14.51-19.33,22.62-31.08,31.72a187.07,187.07,0,0,1-36.8,22.2c6.45-7.13,15.48-17.65,25.38-31.08,15.53-21.08,23.3-31.62,29.18-47,3.51-9.15,13.92-37.44,5.07-71-2.3-8.74-7.12-26.22-22.2-41.87-14.9-15.47-31.74-20.78-46.31-25.38-11.85-3.73-30.26-5.92-66.61-10.15C493.45,357.47,485.51,356.61,480.3,356.06Z" transform="translate(-305.89 -191.38)"/><path d="M612.83,196.46c4.42.88,27.17,5.86,40.39,25.55a51.84,51.84,0,0,1,3,5,46.12,46.12,0,0,1,5.09-2.45c16.44-6.69,32.4-1.93,37.52-.32,0,0,18.13,5.68,30.64,21.32a54.57,54.57,0,0,1,9.08,15.76,52.45,52.45,0,0,1,2.55,9.69,48.17,48.17,0,0,1,8.84-.4c14.18.66,24.27,7.44,29.2,10.79,9.66,6.55,17.36,15.78,23,27.38,6.25,12.79,5.23,26.95,2.4,40.71a81,81,0,0,1-6.79,19.09c-1.12,2.15-2.17,3.89-2.94,5.11,1.37.55,3.34,1.37,5.66,2.46,10.39,4.87,23.59,10.9,32.17,24.2,2.57,4,8.49,12.79,8.58,24.84,0,4.22-.64,9-5.22,20.33-7.21,17.86-10.81,26.79-17.14,32.9-18.31,17.71-45.24,15.11-49.23,14.67a59.34,59.34,0,0,1-7-1.21c.3,1.93.72,4.82,1.13,8.34.47,4.15,4.37,34-1.55,61.82-7.07,33.2-24.29,67.21-47.14,87.51-3.5,3.11-11.14,9.47-14.69,12.43-16.9,14.07-29.54,23.85-35.7,28.64-44.93,35-67.51,52.74-73.4,67.08-2.93,7.11-4.74,14.69-12.46,33.21-4.17,10-7,14.17-12.29,27.57-6.78,17.27-7.69,24.46-15.9,37-27.62,42.11-71.76,60.26-120.52,48.28-28-6.89-52.76-19.07-72.51-38.22a152.75,152.75,0,0,1-21.4-26.75c-19.57-30.75-23.56-60.32-25.59-76.61-1-8.38-5.68-49.81,10-98.11,4.22-13,10-25.87,21.57-51.62,13.65-30.4,19.77-40.18,24.66-61.39,1.55-6.72,2.95-16.65,5.75-36.51C377,483,375,482.39,378.69,468.81c4.56-16.56,7.8-33.61,15.79-49.19,6.49-12.64,13.8-24.77,23.13-35.3,10.33-11.66,13.58-25,13.37-39.84a14,14,0,0,0-.58-3.88,16.25,16.25,0,0,0-4.24-6.81c-3.42-3.41-35.19-42.18-32.59-75.41,1.67-21.32,17.15-36,21.33-39.92,24.54-23.21,57.63-20.3,69.78-19.24,25,2.2,45.9,13.6,53.32,17.74,3.52,2,6.36,3.73,8.29,5,1.38-1.49,3.5-3.71,6.28-6.2a87.94,87.94,0,0,1,34.18-19.28C597.41,193.4,606.54,195.21,612.83,196.46Zm79,177.38c.43.7,1.07,1.7,1.89,2.87,0,0,1.92,2.75,4.24,5.42,7.19,8.24,13.08,15.21,22.19,18.25a36.16,36.16,0,0,0,12.11,1.82c26.64-.38,60.15-17.89,65.81-55.52,3.76-25.06-6.1-47.33-24-59.11C763,280.21,749.6,279,749.6,279a58,58,0,0,0-8.15-.33c0,1.8.07,4.4-.11,7.51a97,97,0,0,1-9.21,35.25c-6.76,13.92-16.93,23.26-28.91,27.43a52.74,52.74,0,0,1-27.92.77,28.27,28.27,0,0,1-12.15-6,25.68,25.68,0,0,1-4.4-5c1.67.7,4,1.63,6.87,2.6a84.93,84.93,0,0,0,18.21,4.23c12.87,1.4,24.25-1.82,33.37-11.41a70.6,70.6,0,0,0,16.15-26.22c1.88-5.59,5.81-17.92,2.72-33-3.73-18.23-16.74-35.56-35.16-42.94-3.91-1.57-17.95-6.46-34.13-2.12a50.82,50.82,0,0,0-8.31,3c.94,1.88,2.18,4.52,3.43,7.76a96.82,96.82,0,0,1,5.88,27.9c.63,12.72,1.58,31.79-11.55,48.39-13.66,17.25-33.53,20.47-37.9,21.06a60.7,60.7,0,0,1-31.11-4.06c3.74.08,9.27.09,16-.29,12.51-.72,19.12-1.16,26.63-4.4a47.56,47.56,0,0,0,14.23-9.59c15-14.37,16.19-35.12,16.51-40.91,1.1-19.48-5.32-56.1-36.6-69.63-25.42-11-53.41-.77-68.33,12.58a54.08,54.08,0,0,0-4.72,4.77c1.59,1.69,3.69,4,6.05,6.77,0,0,4.79,5.65,8.73,11.22,2.5,3.54,27.33,40.05,19.56,76.12A45.89,45.89,0,0,1,579,336.25a46.67,46.67,0,0,1-18.27,16c-2.16,1.11-5.22,2.9-6.65.58-2-3.3,2.23-3.54,3.92-4.57a47,47,0,0,0,12.93-11c12.92-16.4,12.2-34.62,7.28-53.46-18.51-70.76-94.39-100.69-153.48-60.53C404.59,237,395.45,259.09,401,282.05c4.71,19.44,16.48,34.68,30.63,48.14,4.55,4.32,6.73,9.18,6.58,15.11-.36,13.78-2.34,27-12.42,37.76A95.87,95.87,0,0,0,415,397.31c-24.09,37.95-40.81,77.56-37.37,124.49,1.52,20.76-6.38,41.66-15,61.22-13.3,30.08-28.83,59.11-35.9,91.85-6.55,30.31-10.73,60.55-6.67,91.32,7.68,58.25,35.86,101.93,92.13,124C449.89,905,486.62,904.81,519.74,878c23.74-19.25,37.58-45.28,48.22-73.32,4.43-11.67,6.35-24.15,11.9-35.47,14.61-29.81,37.75-52.08,63.14-72.49,18.82-15.13,40.75-25.92,58.12-43.14,25.55-25.34,43.28-53.43,52-84.78,8.28-29.83,5.52-60.75,4.51-71.48-.33-3.53-.68-6.45-.94-8.42a36.54,36.54,0,0,1-3.73-2.31,42.61,42.61,0,0,1-12-13.38,37,37,0,0,1-5.19-11.4,33.29,33.29,0,0,1-.76-11,85,85,0,0,0,5.44,11.74c4.42,7.9,7.67,13.71,14.06,17.88,7.11,4.64,14.45,5.42,21.15,5.11a86.33,86.33,0,0,0,19.32-2.66c21.4-6,34.43-20.31,37.86-42.26,1.85-11.79.66-22.48-3.65-31.85-5.67-12.3-14.88-18.78-19.29-21.83a61.52,61.52,0,0,0-18.29-8.57,115.72,115.72,0,0,1-12,10.88c-9.4,7.38-22,17.44-39.53,18.92a56.65,56.65,0,0,1-21.15-2.33C704.17,401.47,692.63,388,691.88,373.84Z" transform="translate(-305.89 -191.38)"/><path d="M590.43,571.48A218.92,218.92,0,0,1,608,554.82c10.76-9.28,25.08-29.44,32.33-52.26,0,0,13.54-47.63-7.82-95a21.85,21.85,0,0,1-1.36-3c-.64-2.35-4-5.25-.37-7,3.21-1.52,4.3,2.46,5.64,4.56,9.23,14.42,11.19,31,13.4,47.4,3.84,28.45-.32,54.83-11.71,77.6-2.72,5.43-18.52,36-52.54,54.43-2.83,1.54-5.25,2.71-7,3.49C581.14,581.91,585.15,577.07,590.43,571.48Z" transform="translate(-305.89 -191.38)"/></svg>